<svg width="525" height="632" viewBox="0 0 525 632" fill="none" xmlns="http://www.w3.org/2000/svg">
<path d="M391.5 224C393.5 206.833 391.1 154.8 391.5 150L406 197.5L410.5 247L408.5 271.5L391.5 224Z" fill="#422600"/>
<path d="M160.077 432.385H208.033L218.236 431.586C222.738 428.923 222.328 424.278 216.706 410.741L208.033 399.959C181.433 405.679 164.676 398.501 138.649 413.277C128.5 422.733 124.12 427.627 119.773 435.28C119.059 446.949 118.601 453.714 117.732 465.968C104.464 452.31 97.3775 444.373 92.2238 424.278C88.9584 385.895 87.5803 362.593 86.1017 317.158L81 333.371C81.0491 391.003 81.4511 423.319 88.1424 481.023L109.059 515.186L138.649 559.192C155.316 570.769 164.786 575.573 180.994 593.354C199.053 594.834 208.9 597.273 225.889 604.935C227.361 605.738 234.134 598.867 236.092 596.829C238.05 594.791 249.357 604.935 249.357 604.935C274.961 596.163 288.807 589.07 313.128 574.826L359.044 535.452L389.144 482.181L392.205 441.649L396.286 424.278L407 316L386.593 427.173C380.79 452.416 376.227 464.987 365.676 484.497C349.082 489.034 338.555 489.13 338.637 508.237C332.293 496.742 328.276 490.507 328.944 475.812V455.546C327.127 442.713 324.007 435.724 308.027 424.278C304.22 425.726 254.028 401.287 250.887 404.012C247.747 406.737 238.133 428.331 240.684 431.227C243.235 434.122 267.107 434.431 284.559 438.754C302.01 443.652 306.543 449.59 318.23 465.968L334.045 516.923C317.295 524.844 302.793 532.372 290.681 555.139L243.745 576.563C219.406 574.635 205.819 572.661 182.014 562.666L154.975 529.661C141.756 511.115 135.305 500.363 128.956 479.286C128.429 465.566 131.407 454.482 138.649 441.649C145.504 435.922 150.352 434.111 160.077 432.385Z" fill="#341E01"/>
<path d="M341.038 82.982L334 110.483C354.418 121.577 366.927 130.464 390.303 148.984C400.745 186.392 405.564 207.71 408.902 247.488C406.866 276.97 405.909 293.543 405.886 323.49L402.87 353.991L402.704 355.832C399.456 391.921 397.584 412.716 390.303 445.494C389.561 461.675 388.67 469.53 386.281 481.496L358.632 531.497L370.194 563.498C372.189 576.21 371.098 581.77 368.184 590.999C366.804 591.924 330.159 573.462 346.568 585.999C362.976 598.536 375.018 606.328 400.859 612L428.005 596.499L460.681 577.499L472.745 569.999C500.391 587.807 515.746 587.947 498.886 563.498C485.713 552.229 482.48 545.729 491.345 533.497C497.753 528.538 499.693 524.117 500.897 513.997C493.519 496.349 503.494 490.479 515.978 478.496L513.967 455.995C523.349 444.975 511.934 439.315 489.837 426.494C502.085 416.629 506.35 409.446 507.432 392.493L522.513 372.992C527.437 363.995 524.502 357.594 518.491 345.991C525.136 341.465 525.651 337.467 522.513 328.49L485.816 304.49L478.275 271.488V247.488C488.473 230.029 491.214 221.562 480.286 213.486C482.271 198.29 475.576 192.292 453.14 184.986C456.954 168.524 458.803 159.321 450.627 143.984C451.241 129.267 448.714 121.967 439.567 110.483C420.809 105.554 413.236 100.678 407.394 86.4821C395.296 78.8529 387.078 76.8246 369.692 77.4818C369.692 77.4818 372.708 65.4814 364.665 68.4815C356.622 71.4816 341.038 82.982 341.038 82.982Z" fill="#422600"/>
<path d="M270 279C252.748 270.071 242.92 269.394 225 279V260C242.548 266.507 252.403 267.318 270 265.135V279Z" fill="#433E3E"/>
<path d="M282.812 337.26C274.575 314.925 271.367 282.684 270.374 269.978C270.124 266.769 272.148 263.9 275.275 263.141C292.652 258.927 350.018 248.036 402.988 272.07C405.337 273.136 406.858 275.477 406.921 278.055C407.602 305.598 403.934 321.324 393.306 345.232C392.411 347.246 390.596 348.713 388.439 349.166C350.675 357.095 327.433 355.823 286.849 341.208C284.994 340.54 283.494 339.109 282.812 337.26Z" fill="#F6FEFF"/>
<path d="M97.9945 314.36C91.5679 291.013 90.9701 257.934 91.0025 245.067C91.0106 241.866 93.2342 239.178 96.3913 238.655C113.955 235.744 171.807 229.175 222.497 257.688C224.729 258.944 226.04 261.384 225.902 263.941C224.387 291.969 219.492 307.625 207.011 331.056C205.972 333.008 204.047 334.345 201.855 334.638C163.756 339.715 140.789 336.609 101.683 318.64C99.8905 317.817 98.518 316.262 97.9945 314.36Z" fill="#F6FEFF"/>
<path d="M287.164 26.2946C303.261 39.6007 312.275 43.176 328.33 41.7944C343.658 50.4853 345.801 60.6472 342.889 84.2941L335.359 110.794C287.318 81.3707 251.61 75.265 170.692 84.794L140.068 124.794C158.304 167.032 147.892 180.017 105.427 190.793C104.385 261.719 96.403 292.639 86.3499 352.791C84.368 399.434 85.8479 457.79 89.8642 473.29C93.8804 488.79 120.339 518.52 135.047 542.29C146.329 569.57 146.46 577.485 145.59 590.289C132.401 603.91 123.5 606.789 106.933 603.289C90.3662 599.789 114.966 611.789 120.488 622.289C126.011 632.789 105.629 617.191 96.2626 609.289C94.741 606.122 92.638 602.498 89.8642 598.289L55.7258 567.789C37.5175 562.905 24.552 566.386 26.6078 515.79L18.0732 505.29C4.95977 495.046 7.70033 488.186 23.0936 474.79C15.6785 465.672 13.7788 458.353 18.0732 437.791C3.14435 420.596 1.67234 412.795 23.0936 405.291L10.0407 384.291C-1.19583 372.798 1.32391 363.699 13.0529 345.292L18.0732 317.792C5.38988 303.975 6.11199 296.198 16.0651 282.292L0 287.292C1.04919 251.864 5.53481 239.395 23.0936 235.293C17.2222 222.06 16.5856 214.761 27.6119 202.293L48.6973 172.793C44.5157 142.629 48.1549 132.421 70.7868 132.294L78.3174 124.794C84.2115 114.942 89.812 111.235 101.913 106.294L105.427 96.7939V84.794L119.986 78.2941L130.027 59.7943L157.639 45.7944C174.046 31.6417 183.487 27.9553 201.316 38.7945C224.781 65.638 236.518 70.9252 254.029 45.7944C262.145 27.2813 267.986 19.8176 287.164 26.2946Z" fill="#422600"/>
<path d="M329 43.72C311.851 44.6418 302.885 41.3479 288.063 28.6261C270.323 22.7112 263.712 28.5549 255.113 47.745C239.146 72.8845 227.035 68.2285 202.194 40.7012C187.088 30.8355 177.692 32.3082 161.184 45.7324C160.393 46.3758 159.586 47.0466 158.76 47.745L135.296 59.7835C147.867 94.6724 141.008 105.692 113.829 116.17C93.9827 127.392 91.3093 135.235 92.8611 150.383C102.511 180.771 101.9 191.263 84.8733 192.646C50.5741 194.434 48.8136 205.534 50.9252 228.368C68.0662 242.216 66.7373 246.542 52.4229 250.505C33.9622 264.231 62.0218 272.311 67.4 277.171C72.7782 282.031 42.4382 287.234 42.4382 287.234C32.8524 288.903 28.9064 294.361 24.9649 313.9C24.9649 313.9 44.9344 316.415 44.9344 319.937C44.9344 323.459 21.9695 319.434 22.4687 323.459C22.9679 327.484 43.4366 322.956 44.9344 326.478C46.4321 330 24.9649 330 24.9649 333.522C24.9649 337.044 39.942 337.044 39.942 337.044C44.924 344.165 43.4472 346.666 37.945 350.125C61.0244 377.109 58.6437 385.839 42.4382 396.413C42.4382 396.413 26.4626 398.425 26.4626 401.947C26.4626 405.469 42.4382 414.022 42.4382 417.544C42.4382 421.066 26.4626 423.078 26.4626 429.619C26.4626 436.16 48.429 440.688 48.429 440.688C64.5394 450.175 34.8957 474.133 34.9496 477.416C35.0035 480.699 63.4584 486.513 59.9114 489.994C59.4015 494.501 56.5773 496.413 50.426 499.554L40.9405 538.294C70.9062 539.17 72.4534 541.997 69.8962 547.854C56.5365 552.595 40.4412 542.823 38.9435 544.332C37.4458 545.841 46.9313 553.891 46.9313 553.891C69.452 558.012 78.6614 556.802 94.3588 553.891C97.7949 553.215 143.918 591.791 141.786 601.689C139.802 610.899 107.883 609.749 103.776 608.91C106.988 611.075 126.767 630.279 122.815 631.876C118.552 633.599 99.3511 616.782 99.3511 616.782L92.3618 605.21L57.9145 574.016C32.4445 570.558 26.9802 557.929 28.9588 521.188L20.4718 511.126C9.57001 502.753 7.80044 496.751 24.9649 479.932C16.7606 466.263 15.6469 458.129 20.4718 442.7C5.8795 425.704 3.83534 417.762 24.9649 409.997L12.484 388.866C2.18774 378.003 2.06436 369.617 15.4794 349.119L19.9725 321.95C10.0195 308.646 7.05021 300.956 18.974 285.725L2 291.259C3.64347 257.253 6.94675 242.377 25.9634 238.934C18.9672 224.365 18.88 216.915 29.9573 205.727L50.426 176.546C47.4975 150.153 45.9728 135.455 73.3908 134.786L80.3801 127.239C86.6191 117.864 91.7595 113.785 103.844 108.623L106.84 98.5609V87.9952L121.817 80.9514L131.302 61.8326L135.296 59.7835L158.76 47.745C159.586 47.0466 160.393 46.3758 161.184 45.7324C161.948 32.1605 170.386 28.7357 189.214 24.6011C227.099 -6.6729 240.078 -5.74709 255.113 14.0354C263.256 0.0151901 269.704 4.67456 282.571 22.0854C294.673 15.3848 301.644 14.454 315.021 27.1167C324.153 28.6843 326.25 33.6105 329 43.72Z" fill="#65471F"/>
<path d="M464.5 197C467.031 201.989 468.766 206.566 469.744 210.924L479 235.5C476.5 265 455.45 273.5 453 289C451.482 298.606 454.075 304.9 460.5 314C470.427 331.39 478.321 340.824 493.5 357.5L483.5 351C468.576 338.991 460.982 334.964 443.5 314C441.746 290.208 441.088 277.133 450 262C466.187 240.992 473.474 227.547 469.744 210.924L464.5 197Z" fill="#65471F"/>
<path d="M173.529 99.9091C167.435 103.568 156.264 125 156.264 125H139C143.66 109.178 152.494 98.2027 168.451 81.0909L202.979 79H237L200.948 92.0682C200.948 92.0682 179.622 96.25 173.529 99.9091Z" fill="#422600"/>
<path d="M150.5 133C199.85 136.572 218.468 125.547 233 79H206.5C198.515 102.719 190.946 115.899 147.5 113.5C94.7325 115.988 119.5 175.109 127 175.5C184.5 178.5 147.5 189.5 111 203C166.5 203 211.5 171.517 159 164.5C125.331 160 121.5 139.5 150.5 133Z" fill="#65471F"/>
<path d="M211.5 51C203.083 40.0233 206.5 79 206.5 79L232.5 79C244.12 78.3944 250.136 77.0149 257 66.5C265.223 51.1514 270.169 48.28 280.5 69C320.691 64.517 330.938 68.7874 311 97.5L323 103.5C343.779 79.0798 333.808 29.2683 282 58.5C279.289 37.3639 270.5 26.5 257 48C240.891 76.9951 219.917 61.9767 211.5 51Z" fill="#65471F"/>
</svg>
