<?xml version="1.0" standalone="no"?>
<!DOCTYPE svg PUBLIC "-//W3C//DTD SVG 20010904//EN"
 "http://www.w3.org/TR/2001/REC-SVG-20010904/DTD/svg10.dtd">
<svg version="1.0" xmlns="http://www.w3.org/2000/svg"
 width="632.000000pt" height="632.000000pt" viewBox="0 0 632.000000 632.000000"
 preserveAspectRatio="xMidYMid meet">
<metadata>
Created by potrace 1.14, written by Peter Selinger 2001-2017
</metadata>
<g transform="translate(0.000000,632.000000) scale(0.100000,-0.100000)"
fill="#000000" stroke="none">
<path d="M2770 6297 c-31 -12 -67 -30 -80 -39 -14 -10 -30 -18 -37 -18 -7 0
-13 -4 -13 -10 0 -5 -5 -10 -10 -10 -6 0 -16 -5 -23 -10 -15 -13 -134 -105
-162 -125 -11 -7 -35 -17 -54 -20 -108 -19 -199 -71 -221 -127 -22 -55 -47
-74 -186 -144 -73 -36 -138 -71 -143 -78 -9 -10 -70 -118 -92 -161 -6 -11 -42
-34 -82 -51 l-72 -31 -1 -64 c-3 -107 -20 -138 -96 -179 -77 -42 -111 -70
-157 -130 -57 -75 -98 -108 -131 -105 -34 3 -122 -25 -142 -46 -40 -39 -52
-82 -51 -184 0 -55 2 -118 4 -141 2 -31 -2 -48 -20 -70 -62 -80 -121 -164
-121 -173 0 -5 -4 -11 -9 -13 -9 -3 -55 -64 -107 -142 -36 -54 -42 -125 -16
-199 l21 -58 -25 -9 c-14 -6 -30 -10 -35 -10 -6 0 -32 -22 -58 -48 -69 -69
-91 -143 -106 -363 -6 -73 -4 -87 9 -92 9 -4 13 -13 10 -22 -8 -19 4 -19 49 0
42 17 49 12 31 -24 -8 -16 -16 -42 -18 -58 -3 -30 19 -113 34 -123 3 -3 18
-25 33 -50 27 -48 27 -41 2 -170 -5 -21 -13 -71 -19 -105 -1 -5 -5 -16 -9 -22
-5 -7 -5 -13 -1 -13 4 0 0 -8 -8 -17 -22 -27 -70 -113 -62 -113 3 0 2 -6 -4
-13 -16 -19 -26 -90 -18 -130 3 -19 31 -71 62 -117 80 -119 126 -199 119 -210
-3 -4 -17 -10 -32 -13 -16 -3 -47 -22 -71 -42 -32 -28 -42 -44 -42 -66 0 -34
50 -145 81 -178 21 -22 25 -55 14 -101 -18 -77 -3 -174 40 -258 l17 -33 -51
-54 c-78 -83 -86 -109 -54 -185 3 -8 7 -21 9 -28 3 -18 53 -82 64 -82 4 0 23
-18 41 -41 31 -40 32 -44 34 -148 3 -117 17 -201 46 -269 42 -98 92 -139 207
-170 67 -18 79 -26 172 -112 20 -19 72 -66 115 -105 43 -38 88 -79 100 -90 12
-11 38 -47 58 -80 54 -91 249 -232 271 -197 3 5 -1 15 -9 22 -8 7 -15 26 -15
43 0 23 -13 42 -63 91 l-64 61 84 2 c187 4 278 47 242 114 -10 19 -8 25 19 49
l31 27 -3 95 c-2 52 -9 111 -15 131 -7 21 -11 41 -9 46 7 19 233 -154 323
-247 29 -29 60 -54 71 -56 10 -2 48 -7 84 -12 36 -4 67 -8 70 -9 3 -1 21 -5
40 -9 47 -10 202 -66 217 -78 18 -14 45 -2 89 41 40 38 41 38 70 22 17 -9 47
-29 67 -44 30 -24 39 -27 56 -17 12 6 21 8 21 5 0 -3 10 1 22 9 12 9 28 16 36
16 34 0 410 180 453 216 8 8 19 14 23 14 8 0 104 67 116 80 3 3 36 32 75 65
38 33 75 65 81 70 10 9 74 64 153 132 14 12 42 36 61 52 l35 31 14 -33 c14
-34 78 -209 88 -242 21 -68 8 -265 -18 -281 -5 -3 -57 16 -116 41 -150 64
-164 56 -49 -30 146 -108 271 -168 433 -210 l63 -15 52 30 c29 17 60 35 68 40
31 18 136 78 180 103 25 13 82 47 128 73 46 27 102 60 125 73 23 13 69 41 102
62 l59 37 56 -30 c30 -17 64 -37 75 -44 11 -7 23 -13 27 -14 4 0 22 -7 40 -14
47 -20 99 -26 120 -15 39 21 -4 131 -83 209 -70 70 -92 106 -92 155 0 46 30
109 63 132 28 20 56 72 69 129 10 42 10 58 -1 85 -18 43 -15 116 6 157 9 17
48 62 86 100 70 69 71 70 66 113 -16 126 -16 187 -1 199 24 20 18 74 -11 110
-26 30 -115 92 -201 140 l-42 23 53 54 c51 50 91 114 101 162 3 12 7 29 9 39
2 10 5 33 7 52 3 33 14 49 109 170 56 71 72 112 66 167 -4 29 -18 77 -33 107
l-27 55 27 27 c24 24 32 42 28 66 0 4 -2 21 -3 38 -3 39 -4 40 -173 149 -77
50 -144 94 -150 98 -5 5 -22 16 -37 25 -15 10 -26 26 -26 35 0 10 -7 45 -16
78 -9 33 -19 74 -22 90 -3 17 -10 48 -16 70 -7 22 -13 99 -14 170 l-2 130 41
85 c29 59 42 101 45 140 3 51 1 58 -29 90 -26 28 -33 44 -35 85 -4 72 -16 98
-66 137 -42 34 -164 91 -193 91 -14 0 -13 20 1 67 4 12 13 83 18 145 3 30 -22
132 -40 167 -9 17 -17 62 -19 102 -4 83 -20 135 -66 211 -25 42 -41 57 -69 66
-54 16 -70 23 -140 58 -64 32 -98 67 -149 156 -34 59 -184 112 -313 111 l-67
-1 1 39 c1 68 -33 70 -141 6 -36 -22 -80 -48 -96 -59 l-31 -20 3 95 c3 121
-18 183 -82 243 -24 22 -48 41 -53 41 -5 0 -20 25 -32 55 -22 55 -53 86 -100
100 -14 4 -38 19 -55 34 -78 68 -161 83 -243 43 l-43 -21 -27 32 c-60 68 -108
114 -133 124 -30 13 -65 -5 -105 -54 -13 -15 -23 -23 -24 -17 0 17 -77 91
-113 110 -52 26 -134 27 -197 1z m265 -791 c65 -5 130 -13 180 -21 122 -19
301 -77 421 -135 45 -22 86 -40 92 -40 6 0 12 -3 14 -7 2 -5 28 -21 58 -37 30
-17 69 -39 86 -50 18 -12 79 -49 136 -84 124 -76 269 -178 366 -259 15 -13 30
-23 34 -23 20 0 32 -55 35 -155 3 -150 6 -474 3 -560 -1 -57 4 -86 30 -155 17
-47 38 -105 46 -130 9 -25 21 -58 28 -75 21 -46 50 -139 49 -152 0 -7 -1 -25
-2 -40 l-1 -28 -18 22 c-18 22 -151 83 -181 83 -10 0 -21 3 -25 7 -3 4 -12 8
-19 9 -32 7 -60 14 -77 19 -25 8 -58 15 -99 20 -18 3 -36 7 -40 9 -18 11 -177
21 -336 21 -203 -1 -279 -7 -445 -40 -14 -3 -39 -8 -57 -11 -18 -3 -44 -18
-58 -32 -15 -15 -25 -20 -23 -12 2 11 -5 14 -27 13 -64 -4 -205 -4 -212 0 -5
3 -25 8 -46 11 -44 7 -160 45 -167 55 -31 41 -321 156 -470 185 -14 2 -47 9
-75 15 -81 16 -239 30 -355 32 -59 1 -254 -7 -276 -12 -23 -4 -33 3 -29 22 4
17 11 178 19 381 1 31 4 59 6 61 3 2 28 9 55 16 79 19 177 58 235 95 l53 33
70 -13 c170 -33 113 -80 -263 -219 l-95 -35 85 5 c136 8 225 24 345 61 140 43
275 136 275 189 0 74 -70 108 -282 139 -27 4 -48 10 -49 14 0 4 -2 34 -4 67
-2 33 -8 80 -15 105 -6 25 -12 50 -13 55 -1 6 -6 15 -9 20 -4 6 -3 17 2 25 7
12 42 15 172 16 178 1 219 6 311 34 147 46 253 153 332 337 21 48 39 92 40 97
18 68 8 66 190 52z m-493 -124 c-15 -36 -46 -78 -79 -106 -39 -33 -132 -73
-189 -81 -21 -4 -48 -8 -60 -10 -32 -5 -48 9 -29 25 8 7 15 19 15 26 0 8 3 14
8 14 4 0 16 14 27 30 26 39 66 57 195 92 126 33 121 32 112 10z m559 -1797
c30 -7 72 -23 94 -34 l40 -19 7 21 c5 19 6 18 8 -8 1 -16 3 -39 5 -50 3 -11 7
-45 10 -75 3 -31 7 -67 10 -80 6 -29 24 -128 31 -167 11 -62 48 -190 65 -223
15 -31 27 -38 96 -62 107 -36 244 -74 298 -82 17 -3 55 -9 85 -15 51 -9 328
-6 395 4 99 14 189 35 206 48 35 26 118 253 136 369 3 21 9 35 14 32 4 -2 6
-10 4 -17 -2 -7 -6 -54 -9 -105 -3 -51 -7 -96 -10 -100 -2 -4 -7 -25 -10 -47
-7 -44 -13 -77 -21 -115 -3 -14 -9 -50 -15 -80 -6 -30 -13 -66 -16 -80 -3 -14
-7 -36 -9 -50 -2 -14 -6 -38 -9 -55 -3 -16 -17 -93 -31 -170 -14 -77 -28 -149
-29 -160 -2 -11 -7 -36 -11 -55 -3 -19 -8 -46 -10 -60 -2 -14 -7 -37 -10 -52
-3 -16 -7 -39 -9 -52 -9 -52 -59 -226 -88 -306 -38 -105 -114 -260 -131 -265
-7 -2 -51 -16 -99 -30 -120 -37 -146 -67 -161 -185 -3 -19 -41 46 -72 121 -21
52 -23 75 -25 226 -1 176 -11 241 -47 309 -29 55 -137 152 -183 164 -21 6
-115 42 -211 81 -212 86 -302 119 -328 119 -14 0 -29 -18 -53 -67 -18 -37 -33
-70 -34 -73 0 -3 -3 -12 -7 -20 -26 -67 -30 -117 -8 -121 3 -1 15 -3 26 -4 11
-2 34 -5 50 -9 17 -3 55 -8 85 -12 86 -9 101 -11 170 -23 195 -32 285 -87 394
-238 36 -50 48 -82 116 -303 18 -58 43 -138 56 -178 13 -40 24 -74 24 -76 0
-2 -33 -21 -72 -41 -156 -80 -259 -173 -333 -300 -20 -34 -40 -52 -69 -65 -23
-10 -71 -32 -108 -49 -38 -17 -96 -44 -130 -60 -207 -95 -186 -89 -288 -78
-116 13 -156 19 -200 28 -25 6 -54 12 -64 15 -30 6 -85 24 -173 56 -84 31 -88
34 -173 142 -8 10 -22 26 -30 35 -82 91 -270 347 -270 370 0 5 -4 11 -9 13
-12 5 -85 162 -111 241 -18 55 -21 83 -17 140 6 82 14 122 28 149 5 10 7 18 4
18 -14 0 66 138 91 156 85 62 121 68 444 70 151 1 284 5 295 7 11 3 25 6 32 6
6 1 16 14 21 30 8 22 5 43 -14 99 -13 40 -32 81 -41 93 -79 97 -69 92 -163 74
-10 -2 -67 -6 -127 -10 -313 -17 -416 -49 -535 -166 -95 -94 -130 -148 -133
-206 -7 -135 -16 -248 -20 -251 -5 -6 -78 70 -113 117 -15 20 -30 38 -33 41
-15 11 -78 148 -93 200 -16 59 -22 119 -40 400 -3 47 -9 123 -12 170 -13 174
-10 277 11 380 3 14 7 39 10 55 3 17 8 41 10 55 10 48 13 65 19 114 10 74 22
88 31 35 11 -64 31 -97 70 -114 19 -8 51 -22 70 -30 19 -8 36 -14 38 -13 2 2
11 -3 20 -11 10 -7 17 -10 17 -6 0 4 6 3 13 -3 13 -11 160 -60 222 -73 66 -15
78 -17 130 -25 64 -10 300 -10 385 -1 131 14 122 7 178 125 75 158 104 240
126 367 10 56 15 78 18 79 105 58 215 76 309 51z"/>
</g>
</svg>
